<?xml version="1.0" standalone="no"?>
<!DOCTYPE svg PUBLIC "-//W3C//DTD SVG 20010904//EN"
 "http://www.w3.org/TR/2001/REC-SVG-20010904/DTD/svg10.dtd">
<svg version="1.0" xmlns="http://www.w3.org/2000/svg"
 width="625.000000pt" height="625.000000pt" viewBox="0 0 625.000000 625.000000"
 preserveAspectRatio="xMidYMid meet">
<metadata>
Created by potrace 1.11, written by Peter Selinger 2001-2013
</metadata>
<g transform="translate(0.000000,625.000000) scale(0.100000,-0.100000)"
fill="#000000" stroke="none">
<path d="M3127 5804 c-4 -4 -35 -8 -69 -10 -63 -4 -109 -24 -53 -24 22 0 26
-3 17 -12 -7 -7 -58 -14 -133 -16 -67 -3 -116 -8 -109 -12 18 -11 -52 -40 -97
-40 -21 0 -43 -4 -49 -10 -5 -5 -42 -12 -82 -16 -39 -4 -72 -11 -72 -16 0 -5
-19 -17 -43 -27 -23 -10 -56 -29 -72 -43 -17 -14 -49 -35 -72 -47 -24 -12 -43
-28 -43 -35 0 -8 -36 -35 -79 -60 -63 -36 -85 -55 -110 -96 -17 -27 -35 -50
-41 -50 -5 0 -10 -5 -10 -11 0 -6 -15 -29 -34 -52 -28 -35 -96 -163 -96 -182
0 -3 -11 -23 -25 -45 -14 -22 -25 -46 -25 -54 0 -8 -3 -16 -7 -18 -15 -6 -43
-66 -43 -91 0 -13 -7 -30 -15 -37 -8 -7 -14 -28 -14 -48 0 -21 -4 -72 -10
-114 -7 -51 -7 -86 -1 -103 6 -17 6 -50 0 -96 -6 -38 -11 -100 -12 -137 0 -37
-5 -77 -9 -89 -5 -12 -4 -25 0 -28 5 -3 12 -33 16 -67 3 -35 13 -92 21 -127 9
-35 14 -74 11 -87 -2 -13 1 -22 7 -21 6 1 12 -9 14 -23 2 -14 11 -52 21 -85
11 -33 22 -76 26 -95 4 -19 11 -39 15 -45 4 -5 18 -53 30 -105 41 -182 45
-195 58 -196 6 -1 16 -2 20 -2 11 -3 34 -70 27 -81 -3 -5 -1 -12 5 -16 5 -3
10 -14 10 -24 0 -10 6 -24 14 -30 16 -14 36 -116 42 -215 2 -39 9 -73 15 -77
7 -4 9 -15 5 -24 -4 -11 0 -25 10 -36 10 -11 14 -19 9 -19 -4 0 -2 -7 5 -15 6
-8 9 -19 6 -24 -4 -5 10 -26 29 -45 20 -20 33 -36 29 -36 -4 0 1 -9 10 -19 10
-11 16 -26 13 -33 -2 -7 4 -25 14 -39 10 -14 16 -29 13 -32 -8 -7 24 -41 52
-55 12 -7 22 -21 22 -34 0 -13 13 -52 30 -88 31 -64 31 -65 33 -30 2 19 3 47
2 62 0 15 4 25 9 22 4 -3 8 8 8 24 0 23 5 31 24 36 13 3 26 15 29 27 3 12 10
18 16 14 6 -3 11 0 11 7 0 10 3 9 10 -2 5 -8 12 -11 17 -7 4 4 2 17 -5 28 -16
25 -8 39 18 32 15 -4 20 0 20 14 0 10 5 24 10 29 7 7 8 19 1 37 -7 18 -7 27 1
29 8 3 4 17 -10 40 -12 19 -22 44 -21 54 0 12 3 14 6 6 5 -13 82 -66 88 -60 2
2 -12 28 -31 58 -18 30 -37 62 -41 70 -4 8 -15 24 -25 34 -30 33 -20 41 11 10
60 -61 91 -82 111 -77 21 6 18 18 -3 18 -7 0 -11 11 -9 23 2 14 -7 37 -22 57
-33 42 -34 60 -4 43 13 -7 28 -21 35 -30 20 -25 73 -50 73 -33 0 7 -9 15 -20
18 -12 3 -20 14 -20 25 0 11 -21 42 -46 68 -58 61 -99 122 -90 132 5 4 27 -14
49 -41 27 -30 50 -47 65 -47 12 0 22 -4 22 -10 0 -13 27 -13 32 0 2 6 25 6 68
0 100 -16 108 -18 116 -43 11 -36 73 -105 138 -155 34 -25 63 -49 66 -52 8 -9
62 -38 122 -67 63 -30 70 -50 26 -70 -32 -16 -51 -10 -68 23 -7 13 -18 24 -23
24 -5 0 -4 -7 3 -15 6 -8 9 -19 5 -25 -10 -16 -36 -12 -51 8 -13 16 -13 16
-14 0 0 -25 -15 -22 -33 5 l-15 22 -10 -25 c-5 -14 -6 -35 -1 -47 5 -14 5 -23
-1 -23 -5 0 -10 10 -12 22 -2 13 -11 24 -21 26 -15 3 -18 0 -12 -17 4 -13 -1
-27 -14 -40 -12 -12 -19 -21 -16 -21 3 0 -1 -13 -10 -29 -11 -23 -12 -30 -2
-34 9 -3 9 -9 0 -26 -7 -11 -13 -28 -13 -36 0 -8 -4 -15 -10 -15 -5 0 -10 -8
-10 -19 0 -19 -23 -45 -32 -35 -5 4 -12 -15 -20 -53 -1 -5 -8 -14 -15 -21 -7
-7 -13 -24 -13 -37 0 -13 -8 -29 -17 -34 -12 -7 -14 -10 -4 -11 10 0 12 -10 7
-40 -5 -35 -4 -40 13 -40 17 0 18 -3 8 -25 -11 -21 -13 -22 -20 -7 -4 10 -6
-1 -3 -25 3 -32 1 -40 -9 -36 -10 3 -13 -5 -13 -27 1 -18 -4 -35 -11 -39 -6
-4 -12 -25 -13 -46 -1 -28 4 -43 20 -56 25 -20 30 -54 7 -45 -10 4 -15 -1 -15
-14 0 -22 16 -27 22 -8 3 9 9 8 21 -4 15 -14 15 -19 3 -30 -8 -8 -11 -21 -6
-29 4 -8 3 -25 -1 -39 -9 -25 -9 -25 -5 3 2 18 -1 27 -10 27 -16 0 -16 0 -5
-57 5 -24 5 -43 1 -43 -3 0 -13 -12 -21 -27 -7 -16 -26 -43 -41 -61 -16 -18
-28 -39 -28 -47 0 -8 -6 -15 -13 -15 -8 0 -20 -11 -27 -25 -16 -30 -20 -31
-54 -4 -35 28 -78 91 -126 188 -22 45 -43 81 -45 81 -6 0 16 -52 27 -65 4 -5
8 -15 8 -23 0 -8 23 -61 50 -118 28 -57 50 -110 50 -117 -1 -6 -7 2 -14 19
-15 33 -66 90 -66 73 0 -6 -10 -20 -22 -30 l-23 -20 27 16 c25 16 28 16 34 1
3 -9 11 -13 17 -9 6 3 7 1 3 -5 -4 -7 9 -45 28 -87 20 -41 36 -79 36 -84 0
-11 -62 -51 -79 -51 -7 0 -20 -7 -29 -16 -15 -15 -14 -16 8 -9 39 12 63 23 87
41 21 15 22 14 37 -14 8 -16 12 -33 8 -36 -4 -4 1 -12 11 -17 19 -11 24 -59 5
-59 -28 0 -148 -54 -148 -67 0 -7 -5 -13 -12 -13 -6 0 -9 -2 -6 -5 3 -3 17 -1
31 4 20 8 27 7 32 -7 6 -17 -21 -46 -35 -37 -4 2 -5 -7 -2 -21 3 -17 0 -24 -9
-22 -9 2 -14 -6 -14 -24 1 -16 -2 -28 -5 -28 -8 0 -81 157 -127 275 -38 96
-71 144 -84 123 -11 -17 -57 10 -155 89 -43 35 -106 84 -139 110 l-60 45 41
-43 c78 -85 156 -179 147 -179 -4 -1 6 -8 22 -16 17 -8 22 -12 13 -9 -10 2
-18 0 -18 -5 0 -22 -21 -8 -35 23 l-15 32 6 -35 c9 -49 12 -52 44 -45 25 6 28
4 23 -14 -4 -14 -1 -21 10 -21 19 0 30 -29 17 -45 -12 -15 3 -30 20 -20 5 3
17 2 26 -3 14 -8 14 -11 -7 -27 -13 -10 -16 -15 -7 -12 10 3 19 -1 22 -10 9
-21 1 -27 -21 -15 -25 13 -45 4 -35 -16 5 -9 8 -24 7 -32 -1 -8 -3 -23 -3 -32
-3 -24 -22 -23 -22 1 0 11 -4 23 -10 26 -5 3 -10 -3 -10 -14 0 -11 -4 -23 -10
-26 -5 -3 -10 -14 -10 -25 0 -13 5 -17 20 -13 18 5 20 0 20 -36 0 -37 2 -41
25 -41 30 0 33 -20 5 -45 -28 -25 -25 -37 6 -29 24 6 26 5 19 -17 -7 -23 -22
-39 -36 -39 -4 0 -25 24 -47 53 -22 30 -48 61 -57 71 -10 9 -14 20 -11 24 4 3
10 2 14 -4 10 -15 56 -39 48 -25 -4 6 0 11 8 11 20 0 20 7 2 26 -8 7 -17 19
-19 26 -4 10 -7 10 -14 1 -5 -6 -21 -14 -37 -17 -24 -4 -35 3 -84 56 -69 73
-77 87 -64 100 8 8 20 7 40 -1 25 -11 34 -9 63 8 19 12 28 21 20 21 -24 0
-102 102 -88 116 3 3 19 -4 35 -16 29 -22 70 -22 57 0 -3 5 1 10 10 10 14 0
13 -4 -5 -27 -19 -24 -20 -28 -6 -31 15 -3 21 -15 17 -36 -1 -5 8 -6 19 -3 15
4 24 -1 30 -16 l9 -22 0 22 c1 12 6 25 11 28 15 9 1 27 -16 21 -13 -5 -19 16
-15 52 3 17 -21 40 -37 34 -14 -4 -14 -5 -3 34 6 20 5 35 -3 45 -14 18 -42 23
-51 9 -10 -17 -23 -11 -28 13 -3 16 -5 13 -6 -10 -1 -23 -6 -33 -17 -33 -26 0
-93 79 -105 124 -6 22 -28 91 -48 151 -33 101 -38 110 -63 113 -15 2 -36 -2
-48 -8 -12 -6 -27 -7 -36 -2 -24 14 -146 -6 -334 -53 -180 -45 -285 -79 -296
-96 -3 -5 -14 -7 -25 -4 -63 20 -93 -34 -87 -162 4 -88 3 -93 -17 -93 -11 -1
-31 -7 -45 -15 -24 -14 -24 -15 20 -12 l45 2 3 -48 c2 -33 0 -47 -7 -42 -6 3
-11 1 -11 -5 0 -6 -4 -8 -10 -5 -10 6 -15 -13 -12 -47 1 -16 -43 -38 -79 -38
-12 0 -16 -6 -12 -21 3 -11 9 -17 12 -12 7 10 31 15 31 7 0 -19 -24 -45 -37
-40 -9 4 -23 -4 -35 -20 -12 -14 -27 -23 -35 -20 -7 3 -16 -1 -20 -9 -3 -10
-12 -13 -24 -10 -11 4 -19 2 -19 -4 0 -6 -14 -11 -31 -11 -19 0 -28 -4 -24
-11 4 -6 13 -8 21 -5 13 5 44 -44 44 -71 0 -7 4 -13 8 -13 5 0 16 -6 25 -13
16 -11 16 -13 -2 -29 -18 -15 -21 -15 -40 3 -12 11 -21 15 -21 9 0 -20 28 -40
57 -41 17 -1 21 -3 11 -6 -22 -5 -23 -36 -4 -53 19 -15 81 -138 74 -145 -3 -3
-26 27 -51 67 -59 94 -143 194 -134 158 4 -14 7 -31 7 -37 0 -7 6 -12 13 -10
6 1 11 -4 9 -11 -1 -8 7 -16 18 -19 14 -4 19 -11 15 -23 -4 -11 2 -26 13 -37
11 -10 28 -36 39 -58 11 -22 24 -49 31 -60 33 -59 101 -312 80 -299 -4 3 -8
10 -8 16 0 5 -8 22 -18 36 -20 29 -92 195 -92 211 0 5 -8 24 -17 43 -30 61
-33 68 -33 85 -1 17 -1 17 -14 1 -13 -18 -32 -26 -22 -9 9 14 -17 71 -36 77
-10 3 -18 13 -18 23 0 10 -7 24 -15 31 -16 14 -20 9 -28 -43 -3 -22 0 -27 17
-28 17 -1 17 -2 4 -6 -19 -5 -19 -32 -1 -55 12 -14 13 -69 1 -62 -4 2 -9 0
-13 -6 -3 -5 -1 -10 4 -10 6 0 11 -7 11 -16 0 -10 -6 -14 -15 -10 -8 3 -15 1
-15 -4 0 -6 10 -10 21 -10 18 0 19 -3 9 -15 -7 -8 -10 -25 -6 -39 3 -14 2 -28
-4 -31 -11 -7 -3 -53 13 -73 14 -17 -7 -32 -34 -25 -10 3 -19 0 -19 -6 0 -6 4
-11 10 -11 17 0 -3 -209 -21 -221 -6 -3 -5 -17 2 -35 7 -16 11 -35 10 -41 -1
-10 252 -13 1237 -13 1073 0 1241 2 1252 15 6 8 9 19 5 25 -8 13 -42 13 -50 0
-10 -16 -35 8 -35 31 0 21 8 23 42 10 70 -25 75 -24 104 24 21 37 29 43 40 34
21 -17 18 -49 -5 -49 -10 0 -24 -7 -31 -15 -15 -18 0 -26 44 -22 22 1 30 -3
37 -22 9 -23 8 -23 -23 -17 -84 18 -95 18 -101 2 -6 -15 43 -16 548 -16 305 0
555 3 555 8 0 4 -4 23 -9 43 -7 31 -5 41 14 65 l23 29 29 -21 c15 -11 44 -44
63 -72 l35 -51 999 -1 c795 0 997 3 993 13 -95 242 -148 351 -249 512 -40 64
-90 144 -110 176 -41 66 -143 193 -180 225 -14 12 -56 45 -94 74 -38 30 -97
79 -130 109 -48 44 -77 61 -131 79 -38 12 -77 22 -87 22 -10 0 -41 24 -69 54
-55 58 -80 75 -192 130 -102 50 -169 79 -302 131 -65 25 -134 53 -153 62 -38
17 -180 63 -193 63 -4 0 -5 -4 -2 -10 3 -5 -1 -10 -9 -10 -9 0 -16 7 -16 15 0
8 -7 15 -15 15 -28 0 -170 64 -207 94 -21 16 -54 49 -73 74 -31 41 -35 52 -35
107 0 68 5 76 75 113 47 25 196 73 315 102 112 28 139 41 187 93 68 74 72 103
42 309 -12 80 -11 88 7 115 56 83 59 160 8 210 -18 19 11 120 116 398 11 28
24 70 31 95 17 63 14 215 -5 269 -19 52 -21 91 -3 91 6 0 29 5 49 11 49 13 64
43 77 150 6 46 16 104 22 129 9 34 9 59 0 100 -11 55 -12 56 -74 87 -80 40
-128 53 -203 53 -33 0 -63 2 -66 5 -3 3 -1 28 4 56 6 31 6 55 0 62 -5 7 -12
24 -16 39 -8 34 -117 171 -203 255 -48 46 -72 80 -99 140 -20 43 -45 98 -56
123 -11 25 -25 48 -32 52 -7 5 -5 8 7 8 13 0 17 9 17 38 0 41 -14 62 -42 62
-19 0 -24 15 -8 25 10 6 2 65 -11 79 -5 6 -9 21 -9 34 0 31 -34 99 -95 187
-26 39 -56 89 -66 112 -25 58 -84 120 -143 151 -59 29 -278 71 -341 65 -27 -3
-70 5 -133 26 -85 29 -179 40 -195 25z m-802 -304 c-7 -12 -55 -14 -55 -2 0 4
14 9 31 10 19 2 28 -2 24 -8z m-486 -816 c-15 -18 -22 -13 -13 10 3 9 10 13
16 10 5 -3 4 -12 -3 -20z m32 -25 c-5 -13 -10 -19 -10 -12 -1 15 10 45 15 40
3 -2 0 -15 -5 -28z m71 -2 c-22 -23 -26 -66 -7 -79 6 -5 3 -8 -7 -8 -10 0 -18
3 -19 8 0 4 -2 17 -3 30 -2 12 3 27 11 33 7 6 13 18 13 25 0 8 8 14 17 14 14
0 13 -3 -5 -23z m-127 -27 c-7 -22 20 -29 28 -7 4 7 6 8 6 1 1 -6 -5 -17 -13
-23 -17 -14 -41 11 -32 34 8 22 18 18 11 -5z m290 -54 c0 -30 -3 -52 -7 -50
-5 3 -8 30 -8 61 0 31 3 53 7 49 4 -4 7 -31 8 -60z m-138 22 c-3 -7 -5 -2 -5
12 0 14 2 19 5 13 2 -7 2 -19 0 -25z m70 -25 c-3 -10 -5 -4 -5 12 0 17 2 24 5
18 2 -7 2 -21 0 -30z m263 12 c9 -10 9 -15 1 -15 -6 0 -11 6 -11 13 0 8 -4 7
-10 -3 -8 -13 -10 -12 -10 3 0 21 13 22 30 2z m-90 -25 c0 -5 -2 -10 -4 -10
-3 0 -8 5 -11 10 -3 6 -1 10 4 10 6 0 11 -4 11 -10z m1476 -39 c0 -11 -4 -17
-8 -15 -4 3 -10 -6 -14 -20 -3 -13 -14 -32 -25 -42 -10 -9 -19 -23 -19 -31 0
-7 -4 -13 -8 -13 -5 0 -6 -14 -4 -31 4 -29 3 -30 -16 -20 -18 9 -21 9 -16 -3
3 -8 -4 -25 -16 -38 -12 -13 -28 -36 -37 -52 l-15 -29 29 7 c15 3 57 11 93 17
36 6 69 15 75 20 5 5 20 8 35 8 20 -1 21 -2 5 -6 -11 -2 -29 -8 -40 -13 -11
-5 -36 -13 -55 -18 -33 -8 -35 -11 -35 -51 0 -48 -11 -58 -68 -64 -20 -2 -40
-7 -44 -10 -3 -4 -19 -7 -34 -7 -15 0 -54 -7 -86 -15 -32 -9 -78 -20 -103 -25
-25 -5 -55 -12 -67 -16 -14 -4 -23 -2 -23 5 0 6 8 11 19 11 10 0 58 13 107 29
49 16 123 39 164 51 41 12 80 27 85 32 7 8 4 9 -10 4 -11 -4 -33 -10 -50 -13
-16 -2 -47 -11 -69 -19 -30 -11 -437 -133 -541 -161 -11 -3 -24 -9 -30 -13
-18 -14 -70 -20 -84 -11 -11 7 1 14 45 26 32 10 84 25 114 35 30 10 88 28 128
40 39 13 72 27 72 31 0 5 13 9 28 9 15 0 32 4 37 8 6 5 35 14 65 22 85 21 120
38 132 68 7 15 12 32 12 37 1 15 34 45 50 45 20 0 24 17 18 81 -5 62 12 113
30 88 7 -10 8 -4 4 18 -3 18 -1 35 4 38 6 3 10 0 10 -8 0 -18 37 -11 59 11 8
7 23 11 35 9 16 -4 58 5 61 12 1 1 1 -8 1 -18z m-1838 -8 c-4 -22 -22 -20 -26
1 -2 10 3 16 13 16 10 0 15 -7 13 -17z m454 -31 c-4 -11 -6 -11 -13 0 -5 7 -9
22 -9 32 0 19 0 19 14 1 8 -11 11 -25 8 -33z m102 23 c-4 -8 -7 -15 -9 -15 -2
0 -5 7 -9 15 -3 9 0 15 9 15 9 0 12 -6 9 -15z m-327 -57 c-3 -7 -5 -2 -5 12 0
14 2 19 5 13 2 -7 2 -19 0 -25z m-248 10 c0 -7 -4 -22 -9 -33 -7 -16 -9 -17
-9 -3 -1 9 -4 23 -7 32 -4 11 -1 16 10 16 9 0 16 -6 15 -12z m427 -43 c11 -27
-2 -37 -14 -11 -7 16 -8 26 -1 26 5 0 12 -7 15 -15z m-372 -20 c3 -8 1 -15 -4
-15 -6 0 -10 7 -10 15 0 8 2 15 4 15 2 0 6 -7 10 -15z m-64 -25 c0 -11 -4 -20
-9 -20 -5 0 -7 9 -4 20 3 11 7 20 9 20 2 0 4 -9 4 -20z m185 -30 c3 -5 1 -10
-4 -10 -6 0 -11 5 -11 10 0 6 2 10 4 10 3 0 8 -4 11 -10z m47 -47 c10 -12 1
-59 -9 -49 -3 3 -7 27 -8 53 -2 27 -1 39 2 28 3 -11 10 -25 15 -32z m-132 33
c0 -3 -4 -8 -10 -11 -5 -3 -10 -1 -10 4 0 6 5 11 10 11 6 0 10 -2 10 -4z m205
-66 c-3 -5 -11 -10 -16 -10 -6 0 -7 5 -4 10 3 6 11 10 16 10 6 0 7 -4 4 -10z
m1675 -24 c0 -16 -37 -28 -46 -15 -4 7 19 22 44 28 1 1 2 -5 2 -13z m-105 -21
c-2 -14 1 -23 6 -19 5 3 9 14 9 25 0 11 4 18 9 14 5 -3 9 -19 9 -35 -1 -26 -6
-31 -37 -40 -50 -14 -52 -13 -42 13 5 12 13 21 18 20 5 -1 10 4 10 11 0 15
-14 15 -36 2 -9 -6 -12 -5 -9 5 4 11 29 23 59 28 3 1 5 -10 4 -24z m959 9 c19
-7 50 -98 42 -127 -3 -13 -21 -30 -41 -40 l-35 -17 0 44 c0 23 -6 64 -14 89
-7 25 -11 48 -8 51 7 8 36 8 56 0z m-2517 -26 c-3 -8 -6 -5 -6 6 -1 11 2 17 5
13 3 -3 4 -12 1 -19z m-48 -53 c1 -17 -1 -17 -9 -5 -5 8 -9 26 -9 40 0 23 1
23 9 5 5 -11 9 -29 9 -40z m-198 8 c-12 -20 -14 -14 -5 12 4 9 9 14 11 11 3
-2 0 -13 -6 -23z m-112 -20 c-1 -17 -3 -21 -6 -10 -2 9 -10 17 -16 17 -7 0 -6
4 3 10 20 13 20 13 19 -17z m261 18 c0 -17 -18 -21 -24 -6 -3 9 0 15 9 15 8 0
15 -4 15 -9z m1835 -96 c2 -28 2 -41 -1 -30 -4 11 -10 25 -14 30 -4 6 -10 26
-14 45 -6 31 -5 33 9 20 8 -9 17 -38 20 -65z m-1555 35 c0 -5 -4 -10 -10 -10
-5 0 -10 5 -10 10 0 6 5 10 10 10 6 0 10 -4 10 -10z m-140 -10 c0 -5 -4 -10
-10 -10 -5 0 -10 5 -10 10 0 6 5 10 10 10 6 0 10 -4 10 -10z m1285 -6 c-11 -8
-20 -19 -20 -25 0 -12 -25 -29 -42 -29 -7 0 -10 6 -7 14 4 11 0 13 -15 9 -12
-3 -21 -12 -21 -20 0 -35 -24 -41 -128 -36 -56 3 -102 8 -102 10 0 14 31 31
65 36 22 4 53 10 69 13 21 5 27 4 22 -5 -9 -14 8 -14 37 1 12 6 31 16 42 21
20 11 76 24 105 26 11 0 9 -4 -5 -15z m-1165 -30 c0 -2 -7 -4 -15 -4 -8 0 -15
4 -15 10 0 5 7 7 15 4 8 -4 15 -8 15 -10z m2425 -101 c-4 -38 -8 -82 -9 -100
-1 -31 -16 -60 -16 -32 0 8 -12 39 -26 69 -43 91 -46 110 -21 120 12 5 35 9
50 9 l28 1 -6 -67z m-2440 47 c3 -5 1 -10 -4 -10 -6 0 -11 5 -11 10 0 6 2 10
4 10 3 0 8 -4 11 -10z m702 4 c-3 -3 -12 -4 -19 -1 -8 3 -5 6 6 6 11 1 17 -2
13 -5z m911 -49 c0 -16 -2 -15 -8 5 -11 34 -11 60 0 35 5 -11 8 -29 8 -40z
m-1828 -4 c0 -28 -4 -53 -10 -56 -6 -4 -9 16 -7 49 3 69 17 74 17 7z m1363 32
c-4 -11 -3 -14 5 -9 6 4 27 0 47 -8 37 -16 46 -26 18 -21 -87 16 -132 29 -121
36 7 4 18 3 24 -2 8 -6 14 -5 18 6 3 8 8 15 10 15 3 0 2 -7 -1 -17z m594 1
c-3 -3 -12 -4 -19 -1 -8 3 -5 6 6 6 11 1 17 -2 13 -5z m770 -31 c-3 -10 -5 -4
-5 12 0 17 2 24 5 18 2 -7 2 -21 0 -30z m-1097 5 c0 -10 -6 -18 -14 -18 -8 0
-18 -5 -22 -12 -4 -6 -3 -8 4 -4 6 3 14 2 17 -4 5 -8 11 -7 21 1 11 9 14 7 14
-11 0 -21 -3 -22 -47 -16 -27 4 -64 12 -83 18 -49 16 -79 48 -45 48 8 0 15 -4
15 -9 0 -5 12 -11 26 -14 19 -3 24 -1 20 10 -4 10 2 13 22 11 17 -2 26 1 25 9
-2 8 7 12 22 11 17 -2 25 -8 25 -20z m257 -10 c-3 -8 -6 -5 -6 6 -1 11 2 17 5
13 3 -3 4 -12 1 -19z m-1312 3 c-15 -13 -75 -31 -75 -22 0 8 47 28 70 30 8 1
10 -2 5 -8z m633 -21 c28 -7 55 -17 58 -22 4 -6 -2 -8 -15 -3 -12 4 -21 2 -21
-4 0 -6 5 -11 11 -11 5 0 8 -4 5 -9 -12 -18 21 -18 35 0 17 24 39 24 166 0
112 -22 163 -43 163 -68 0 -13 -3 -14 -12 -5 -8 8 -19 6 -42 -10 -39 -27 -46
-37 -46 -65 0 -26 -19 -41 -30 -23 -5 9 -9 9 -14 1 -4 -6 -5 -15 -1 -20 3 -5
-3 -12 -12 -16 -19 -6 -67 -66 -97 -123 -15 -28 -17 -39 -8 -53 15 -24 15 -52
0 -67 -9 -9 -9 -12 1 -12 8 0 12 -11 10 -33 -2 -18 1 -38 5 -46 5 -7 3 -18 -3
-24 -6 -6 -11 -26 -11 -44 0 -25 -4 -33 -17 -33 -10 0 -26 -12 -36 -26 -17
-23 -17 -27 -3 -49 11 -16 12 -26 5 -31 -7 -4 -7 -10 -1 -16 6 -6 7 -20 3 -32
-4 -11 -7 -41 -5 -66 4 -53 -12 -100 -33 -100 -13 0 -15 -10 -11 -50 3 -27 1
-50 -3 -50 -5 0 -9 -8 -9 -18 0 -10 -13 -29 -30 -44 -28 -24 -30 -25 -30 -6 0
10 -13 31 -30 45 -16 13 -30 34 -30 45 0 12 -6 26 -14 32 -8 6 -17 25 -21 42
-6 31 4 42 72 79 2 1 -9 47 -31 128 -9 32 -16 68 -16 81 0 13 -7 29 -15 36 -8
7 -15 18 -15 25 0 17 -93 155 -124 184 -14 14 -26 30 -26 38 0 7 -4 13 -10 13
-19 0 -10 19 12 26 28 8 48 34 41 51 -4 11 1 11 22 3 28 -11 61 3 50 21 -7 10
14 49 35 66 10 9 11 12 3 13 -7 0 -13 8 -13 18 0 10 -5 23 -11 29 -8 8 -7 16
2 31 10 16 10 26 -2 53 -8 19 -14 39 -15 44 -1 6 -5 20 -10 31 -7 16 -14 19
-29 13 -17 -6 -17 -8 -2 -8 10 -1 17 -9 17 -20 0 -10 3 -39 6 -65 6 -41 5 -46
-12 -46 -16 0 -16 2 -4 10 12 7 11 16 -9 57 -13 26 -33 59 -45 72 l-21 24 27
-5 c16 -3 29 0 32 7 2 7 15 11 28 8 13 -2 41 0 63 5 22 6 47 8 55 7 8 -2 39
-9 68 -15z m1539 -32 c-3 -8 -6 -5 -6 6 -1 11 2 17 5 13 3 -3 4 -12 1 -19z
m30 0 c-3 -8 -6 -5 -6 6 -1 11 2 17 5 13 3 -3 4 -12 1 -19z m-2817 3 c0 -6 -4
-13 -10 -16 -5 -3 -10 1 -10 9 0 9 5 16 10 16 6 0 10 -4 10 -9z m1919 -46 c15
-19 15 -19 -4 -5 -26 20 -35 32 -35 50 1 10 4 9 12 -5 6 -11 18 -29 27 -40z
m-1459 38 c0 -11 -33 -43 -44 -43 -21 0 -133 -117 -155 -162 -26 -54 -28 -153
-5 -221 10 -29 37 -69 70 -104 30 -32 54 -60 54 -63 0 -3 21 -30 47 -59 57
-65 29 -53 -48 21 -78 75 -147 174 -166 238 -20 66 -22 178 -5 237 17 58 72
110 139 129 29 8 57 13 62 10 5 -3 11 1 15 9 5 15 36 22 36 8z m2275 -31 c-8
-8 -25 10 -19 20 4 6 9 5 15 -3 4 -7 6 -15 4 -17z m-1768 -14 c-3 -8 -6 -5 -6
6 -1 11 2 17 5 13 3 -3 4 -12 1 -19z m1804 -21 c-10 -9 -11 -8 -5 6 3 10 9 15
12 12 3 -3 0 -11 -7 -18z m30 -10 c-10 -9 -11 -8 -5 6 3 10 9 15 12 12 3 -3 0
-11 -7 -18z m-2831 -6 c0 -5 -6 -11 -13 -14 -8 -3 -14 1 -14 9 0 8 6 14 14 14
7 0 13 -4 13 -9z m865 -41 c3 -5 1 -10 -4 -10 -6 0 -11 5 -11 10 0 6 2 10 4
10 3 0 8 -4 11 -10z m242 -37 c2 -6 -5 -13 -17 -16 -15 -4 -20 0 -20 13 0 19
31 22 37 3z m-1127 -3 c0 -5 -2 -10 -4 -10 -3 0 -8 5 -11 10 -3 6 -1 10 4 10
6 0 11 -4 11 -10z m908 -20 c5 -13 3 -13 -11 -1 -33 27 -19 -18 25 -76 38 -52
39 -55 12 -36 -60 43 -87 80 -80 108 5 20 12 26 28 23 12 -2 24 -10 26 -18z
m239 -36 c-9 -10 -38 16 -31 28 4 6 13 4 22 -6 9 -8 13 -19 9 -22z m-1077 7
c0 -15 -12 -41 -19 -41 -3 0 -6 11 -6 25 0 14 6 25 13 25 6 0 12 -4 12 -9z
m1050 -52 c0 -18 -4 -28 -10 -24 -5 3 -10 20 -10 36 0 18 4 28 10 24 6 -3 10
-20 10 -36z m-95 -37 c-7 -8 -35 7 -35 18 0 6 7 6 20 -2 10 -7 17 -14 15 -16z
m575 18 c0 -5 -5 -10 -11 -10 -5 0 -7 5 -4 10 3 6 8 10 11 10 2 0 4 -4 4 -10z
m927 -6 c-3 -3 -12 -4 -19 -1 -8 3 -5 6 6 6 11 1 17 -2 13 -5z m-2010 -126
c-2 -13 -4 -5 -4 17 -1 22 1 32 4 23 2 -10 2 -28 0 -40z m-457 -28 c0 -5 -4
-10 -10 -10 -5 0 -10 5 -10 10 0 6 5 10 10 10 6 0 10 -4 10 -10z m447 -126
c-3 -3 -12 -4 -19 -1 -8 3 -5 6 6 6 11 1 17 -2 13 -5z m-357 -94 c8 -5 11 -12
7 -16 -4 -4 -15 0 -24 9 -18 18 -8 23 17 7z m1315 -10 c3 -5 -1 -10 -10 -10
-9 0 -13 5 -10 10 3 6 8 10 10 10 2 0 7 -4 10 -10z m1163 -92 c6 -16 8 -28 3
-28 -8 0 -31 52 -31 68 0 11 16 -13 28 -40z m-1843 23 c3 -6 -3 -15 -14 -21
-21 -11 -37 2 -26 20 8 13 32 13 40 1z m1728 -7 c9 -9 -4 -35 -14 -28 -5 3 -9
12 -9 20 0 14 12 19 23 8z m57 -55 c0 -12 -47 -12 -54 0 -3 4 -3 10 0 13 7 8
54 -3 54 -13z m40 0 c0 -5 -4 -9 -10 -9 -5 0 -10 7 -10 16 0 8 5 12 10 9 6 -3
10 -10 10 -16z m-250 -3 c0 -3 -4 -8 -10 -11 -5 -3 -10 -1 -10 4 0 6 5 11 10
11 6 0 10 -2 10 -4z m-930 -150 c0 -3 -4 -8 -10 -11 -5 -3 -10 -1 -10 4 0 6 5
11 10 11 6 0 10 -2 10 -4z m-53 -32 c-3 -3 -12 -4 -19 -1 -8 3 -5 6 6 6 11 1
17 -2 13 -5z m-887 -220 c0 -8 -4 -12 -10 -9 -5 3 -10 10 -10 16 0 5 5 9 10 9
6 0 10 -7 10 -16z m607 -10 c-3 -3 -12 -4 -19 -1 -8 3 -5 6 6 6 11 1 17 -2 13
-5z m163 -12 c0 -13 -12 -22 -22 -16 -10 6 -1 24 13 24 5 0 9 -4 9 -8z m-180
-12 c0 -5 -5 -10 -11 -10 -5 0 -7 5 -4 10 3 6 8 10 11 10 2 0 4 -4 4 -10z
m-75 -60 c-3 -5 -10 -10 -16 -10 -5 0 -9 5 -9 10 0 6 7 10 16 10 8 0 12 -4 9
-10z m-608 -52 c-2 -13 -4 -5 -4 17 -1 22 1 32 4 23 2 -10 2 -28 0 -40z m1053
-247 c0 -6 -4 -13 -10 -16 -5 -3 -10 1 -10 9 0 9 5 16 10 16 6 0 10 -4 10 -9z
m5 -61 c4 -6 2 -17 -5 -25 -14 -17 7 -32 23 -16 6 6 17 11 24 11 14 0 9 -50
-10 -89 -9 -19 -9 -25 1 -28 13 -5 17 -33 5 -33 -5 0 -17 -14 -28 -30 -23 -34
-40 -40 -32 -11 6 24 -17 35 -33 15 -7 -8 -8 -14 -2 -14 5 0 12 -9 15 -20 4
-16 0 -20 -16 -19 -12 0 -16 3 -9 6 10 4 10 8 1 19 -7 8 -9 17 -6 21 4 3 2 14
-3 24 -8 13 -6 20 5 26 9 6 18 30 22 61 3 29 10 52 14 52 5 0 9 14 9 30 0 30
13 40 25 20z m-615 -10 c0 -5 -5 -10 -11 -10 -5 0 -7 5 -4 10 3 6 8 10 11 10
2 0 4 -4 4 -10z m-43 -262 c-3 -8 -6 -5 -6 6 -1 11 2 17 5 13 3 -3 4 -12 1
-19z m1649 -370 l29 -33 -30 25 c-16 14 -34 28 -39 32 -6 5 -6 8 0 8 6 0 23
-15 40 -32z m-364 -21 c-5 -20 -6 -20 -13 -1 -11 29 -10 34 5 28 8 -3 12 -13
8 -27z m9 -87 c-3 -3 -9 -9 -13 -14 -5 -5 -8 3 -8 18 0 22 2 25 14 14 8 -7 11
-15 7 -18z m-3094 -107 c-3 -10 -5 -2 -5 17 0 19 2 27 5 18 2 -10 2 -26 0 -35z
m3100 -15 c-3 -8 -6 -5 -6 6 -1 11 2 17 5 13 3 -3 4 -12 1 -19z m-2077 -29 c0
-16 -1 -29 -3 -29 -1 0 -16 -4 -32 -9 -28 -8 -30 -6 -31 20 -1 18 4 29 12 29
8 0 14 -7 14 -16 0 -9 6 -14 13 -11 7 2 11 16 9 31 -3 19 0 26 7 22 6 -4 11
-20 11 -37z m2200 17 c0 -2 -16 -21 -36 -41 l-36 -37 -19 21 c-10 11 -19 26
-19 33 0 8 5 6 11 -4 14 -25 45 -22 66 7 16 22 33 32 33 21z m-2290 -36 c0 -5
-4 -10 -10 -10 -5 0 -10 5 -10 10 0 6 5 10 10 10 6 0 10 -4 10 -10z m290 -79
c0 -6 -9 -9 -20 -8 -11 1 -20 5 -20 9 0 4 9 8 20 8 11 0 20 -4 20 -9z m1923
-42 c5 -3 2 -9 -6 -12 -10 -4 -17 2 -21 16 -10 37 -5 54 7 27 6 -14 15 -28 20
-31z m-3126 -1 c-3 -7 -5 -2 -5 12 0 14 2 19 5 13 2 -7 2 -19 0 -25z m3243
-55 c0 -13 -4 -23 -10 -23 -5 0 -10 9 -10 20 0 11 -4 20 -9 20 -5 0 -7 9 -4
20 5 19 6 20 19 3 7 -10 14 -28 14 -40z m-64 32 c18 -13 18 -14 -4 -8 -12 3
-25 9 -28 14 -8 14 10 11 32 -6z m-3278 -140 l-1 -60 -8 65 c-14 116 -13 183
2 100 4 -25 7 -72 7 -105z m1295 16 c-6 -22 -27 -28 -38 -11 -3 6 -1 10 4 10
6 0 11 19 12 43 l1 42 13 -31 c8 -17 11 -41 8 -53z m367 29 c0 -5 -2 -10 -4
-10 -3 0 -8 5 -11 10 -3 6 -1 10 4 10 6 0 11 -4 11 -10z m-281 -49 c-2 -23 -2
-24 -6 -3 -2 12 -9 22 -14 22 -5 0 -9 4 -9 10 0 5 7 7 15 4 9 -4 14 -17 14
-33z m-39 9 c0 -5 -4 -10 -10 -10 -5 0 -10 5 -10 10 0 6 5 10 10 10 6 0 10 -4
10 -10z m275 -10 c3 -5 1 -10 -4 -10 -6 0 -11 5 -11 10 0 6 2 10 4 10 3 0 8
-4 11 -10z m-1803 -72 c-9 -9 -15 -9 -24 0 -9 9 -7 12 12 12 19 0 21 -3 12
-12z m1368 8 c0 -3 -4 -8 -10 -11 -5 -3 -10 -1 -10 4 0 6 5 11 10 11 6 0 10
-2 10 -4z m690 -72 c11 -26 20 -48 20 -50 0 -10 -29 -2 -40 11 -7 9 -17 12
-24 7 -9 -7 -31 -14 -114 -38 -7 -2 -12 -14 -10 -26 6 -40 -19 -29 -41 18 -18
38 -20 49 -9 55 8 6 18 2 28 -11 15 -20 16 -20 83 2 60 20 67 25 63 44 -6 21
0 34 15 34 5 0 17 -21 29 -46z m1437 6 c23 -7 48 -10 56 -7 10 4 16 -2 20 -19
5 -28 7 -28 -29 -9 -28 14 -29 14 -32 -11 -4 -33 1 -37 38 -36 25 1 30 -3 30
-24 0 -26 -15 -32 -23 -9 -4 8 -32 19 -66 26 -44 9 -63 18 -67 32 -9 28 2 31
26 7 25 -25 40 -18 38 15 -2 21 -8 25 -35 25 -29 0 -33 3 -33 27 0 24 2 25 18
11 9 -8 36 -20 59 -28z m-2011 -110 c25 0 77 -38 69 -51 -10 -15 -25 -10 -25
7 0 13 -4 11 -18 -6 l-19 -23 -16 24 c-10 13 -17 29 -17 36 0 7 -4 13 -10 13
-5 0 -10 5 -10 12 0 9 3 9 12 0 7 -7 22 -12 34 -12z m1994 -21 c11 -7 9 -9
-10 -7 -47 5 -28 -26 25 -43 42 -13 51 -14 58 -2 14 23 27 4 27 -38 0 -43 -22
-52 -28 -12 -2 14 -13 22 -35 26 -18 4 -42 9 -54 13 -30 8 -32 -22 -3 -31 11
-3 20 -11 20 -16 0 -12 -4 -11 -35 3 -23 10 -25 17 -25 70 0 57 1 59 23 52 12
-3 29 -11 37 -15z m-1360 -29 c21 -29 22 -42 6 -81 -5 -12 -1 -18 17 -23 23
-5 47 -42 47 -73 0 -26 -41 -63 -68 -63 -26 0 -182 80 -182 93 0 4 11 29 25
55 14 26 25 53 25 61 0 28 42 61 76 61 25 0 38 -7 54 -30z m-598 -42 c-6 -6
-16 -7 -23 -3 -9 6 -7 12 7 22 21 15 34 -1 16 -19z m1908 -56 c0 -4 13 -23 28
-42 l29 -34 37 22 c47 28 46 28 46 -6 0 -26 -3 -28 -30 -24 -16 2 -30 0 -30
-5 0 -15 23 -33 42 -33 12 0 17 -6 15 -20 -5 -34 -14 -33 -49 5 l-34 37 -36
-15 c-39 -17 -48 -14 -48 15 0 17 5 19 30 13 18 -4 30 -3 30 3 0 13 -28 42
-41 42 -5 0 -9 11 -9 25 0 14 5 25 10 25 6 0 10 -4 10 -8z m-10 -192 c0 -14
13 -23 52 -35 28 -8 53 -15 54 -15 1 0 4 9 7 20 10 40 28 21 25 -27 -3 -48
-24 -71 -30 -32 -2 17 -14 25 -53 35 -64 17 -65 17 -65 -1 0 -8 -4 -15 -10
-15 -11 0 -14 83 -4 93 11 10 24 -3 24 -23z m-1186 -20 c4 -5 11 -23 15 -42 6
-28 3 -35 -17 -45 -32 -17 -48 -6 -26 18 15 17 15 20 0 43 -25 39 -46 23 -46
-33 0 -56 -12 -71 -57 -71 -37 0 -59 26 -65 75 -3 26 0 30 25 33 15 2 27 -1
27 -7 0 -6 -4 -11 -10 -11 -16 0 -12 -46 5 -60 26 -22 44 -4 47 47 2 39 7 50
28 60 24 12 56 9 74 -7z m1196 -126 c0 -8 -6 -14 -14 -14 -20 0 -27 -25 -11
-46 11 -15 15 -16 29 -5 9 7 16 21 16 31 0 34 57 41 84 11 14 -15 16 -29 11
-60 -7 -42 -14 -46 -50 -31 -19 9 -19 9 3 16 19 5 22 13 20 38 -4 44 -30 45
-51 1 -12 -26 -23 -35 -42 -35 -35 0 -59 40 -51 84 6 29 10 33 31 28 14 -2 25
-11 25 -18z m-1128 -51 c19 -52 10 -78 -15 -43 l-15 22 -61 -23 c-50 -18 -61
-26 -59 -42 6 -40 -21 -27 -41 19 -16 36 -19 50 -10 58 7 7 13 7 15 1 15 -37
20 -38 88 -15 61 20 66 23 60 46 -12 45 20 26 38 -23z"/>
<path d="M3230 3885 c-7 -14 -10 -28 -7 -32 4 -3 7 0 7 7 0 7 10 21 22 31 15
14 17 19 6 19 -8 0 -21 -11 -28 -25z"/>
<path d="M3161 3834 c0 -11 3 -14 6 -6 3 7 2 16 -1 19 -3 4 -6 -2 -5 -13z"/>
<path d="M3265 3810 c-3 -5 1 -10 10 -10 9 0 13 5 10 10 -3 6 -8 10 -10 10 -2
0 -7 -4 -10 -10z"/>
<path d="M3167 3734 c-4 -4 -7 -14 -7 -23 0 -11 3 -12 11 -4 6 6 10 16 7 23
-2 6 -7 8 -11 4z"/>
<path d="M3382 3458 c-16 -16 -15 -28 3 -28 8 0 15 9 15 20 0 23 -2 24 -18 8z"/>
<path d="M3127 3436 c-4 -9 -13 -16 -22 -16 -8 0 -15 -5 -15 -10 0 -6 11 -8
28 -4 35 9 36 9 24 29 -8 16 -10 16 -15 1z"/>
<path d="M3370 3396 c0 -9 5 -16 10 -16 6 0 10 4 10 9 0 6 -4 13 -10 16 -5 3
-10 -1 -10 -9z"/>
<path d="M3318 2994 c-13 -13 -9 -44 6 -44 7 0 19 7 26 15 11 13 10 14 -3 9
-9 -3 -17 1 -19 11 -1 9 -6 13 -10 9z"/>
<path d="M2763 715 c4 -8 2 -17 -3 -20 -4 -3 -11 1 -13 7 -4 8 -6 7 -6 -4 -1
-9 -5 -18 -10 -20 -5 -1 -13 -15 -16 -31 -6 -22 -4 -26 9 -21 9 3 16 1 16 -5
0 -6 -9 -11 -20 -11 -11 0 -20 -7 -20 -15 0 -8 -7 -15 -17 -15 -24 0 -7 -13
20 -15 12 -1 28 5 35 14 8 9 11 10 7 4 -3 -7 0 -13 7 -13 10 0 9 -3 -2 -11
-13 -9 -13 -10 0 -6 8 2 14 12 14 21 -2 18 22 22 28 4 2 -6 11 -9 20 -5 23 8
12 50 -12 42 -13 -4 -16 0 -15 17 1 15 8 22 20 21 14 -1 16 4 11 30 -6 32 -21
47 -45 47 -7 0 -11 -6 -8 -15z m-5 -74 c-16 -5 -29 22 -15 31 7 4 15 0 18 -10
4 -9 2 -19 -3 -21z"/>
<path d="M2865 550 c3 -5 8 -10 11 -10 2 0 4 5 4 10 0 6 -5 10 -11 10 -5 0 -7
-4 -4 -10z"/>
<path d="M2784 531 c3 -5 14 -11 25 -14 14 -3 18 -1 14 9 -3 8 -14 14 -25 14
-10 0 -17 -4 -14 -9z"/>
<path d="M2665 3040 c3 -5 8 -10 11 -10 2 0 4 5 4 10 0 6 -5 10 -11 10 -5 0
-7 -4 -4 -10z"/>
<path d="M2864 2515 c-4 -8 -10 -12 -15 -9 -5 3 -9 2 -9 -3 1 -11 29 -48 33
-42 5 7 27 60 27 64 0 12 -31 3 -36 -10z"/>
<path d="M2240 2500 c0 -5 5 -10 11 -10 5 0 7 5 4 10 -3 6 -8 10 -11 10 -2 0
-4 -4 -4 -10z"/>
<path d="M1 2138 c-1 -46 3 -78 9 -78 6 0 10 4 10 9 0 5 9 13 20 16 20 6 28
35 10 35 -5 0 -10 9 -10 19 0 11 -5 23 -11 26 -6 4 -14 17 -19 29 -6 15 -9 -2
-9 -56z"/>
<path d="M220 2174 c-6 -14 -14 -23 -19 -19 -6 3 -15 -3 -20 -14 -6 -11 -21
-23 -32 -26 -25 -8 -68 -54 -69 -72 0 -7 9 -13 21 -13 13 0 19 -5 16 -12 -3
-7 -13 -32 -22 -56 -20 -48 -16 -59 14 -41 26 17 36 7 21 -21 -15 -28 1 -48
20 -25 22 26 40 18 40 -19 0 -24 7 -39 22 -50 19 -14 24 -13 52 7 17 12 36 21
42 19 8 -1 11 10 10 30 -1 30 2 33 32 36 31 3 44 24 22 37 -14 9 -1 27 15 21
10 -4 14 6 13 37 0 51 -12 67 -47 67 -30 0 -46 -9 -54 -30 -3 -8 -6 0 -6 19
-1 26 2 32 15 27 18 -7 66 22 58 35 -3 5 -14 9 -26 9 -14 0 -18 5 -14 16 4 11
2 15 -8 11 -8 -3 -16 2 -19 12 -2 10 -19 23 -36 29 -29 10 -33 9 -41 -14z m-1
-94 c9 0 22 5 29 12 16 16 25 4 17 -22 -5 -15 -10 -19 -17 -12 -12 12 -68 -8
-68 -25 0 -6 -5 -15 -11 -18 -22 -14 -21 6 2 50 14 27 25 39 27 30 2 -8 11
-15 21 -15z m-61 -96 c-4 -20 -34 -41 -44 -31 -8 8 24 47 38 47 5 0 8 -7 6
-16z m82 -8 c0 -3 -4 -8 -10 -11 -5 -3 -10 -1 -10 4 0 6 5 11 10 11 6 0 10 -2
10 -4z m57 -13 c-9 -9 -19 -14 -23 -11 -10 10 6 28 24 28 15 0 15 -1 -1 -17z
m11 -54 c4 -22 -34 -31 -49 -12 -10 12 -10 16 2 24 20 13 43 7 47 -12z"/>
<path d="M1870 1760 c-8 -5 -24 -10 -36 -10 -22 0 -54 -29 -54 -49 0 -7 19 1
44 19 25 16 49 30 55 30 5 0 13 5 16 10 8 13 -5 13 -25 0z"/>
<path d="M227 1720 c-10 -64 -34 -531 -29 -553 12 -50 22 21 22 161 0 85 5
207 11 272 11 124 9 203 -4 120z"/>
<path d="M2384 1401 c-17 -26 -17 -26 3 -8 11 9 34 17 51 17 46 0 48 16 2 17
-32 1 -42 -4 -56 -26z"/>
<path d="M2460 1360 c-13 -8 -13 -10 2 -10 9 0 20 5 23 10 8 13 -5 13 -25 0z"/>
<path d="M2345 1340 c-3 -5 -2 -10 4 -10 5 0 13 5 16 10 3 6 2 10 -4 10 -5 0
-13 -4 -16 -10z"/>
<path d="M2447 1293 c-45 -24 -59 -43 -20 -29 10 4 19 7 21 6 1 0 8 4 15 10 6
6 21 17 32 25 32 23 4 16 -48 -12z"/>
<path d="M750 1259 c0 -5 5 -7 10 -4 6 3 10 8 10 11 0 2 -4 4 -10 4 -5 0 -10
-5 -10 -11z"/>
<path d="M2110 1240 c0 -5 5 -10 10 -10 6 0 10 5 10 10 0 6 -4 10 -10 10 -5 0
-10 -4 -10 -10z"/>
<path d="M2410 1230 c0 -6 7 -10 15 -10 8 0 15 2 15 4 0 2 -7 6 -15 10 -8 3
-15 1 -15 -4z"/>
<path d="M2380 1220 c-8 -5 -12 -12 -9 -15 4 -3 12 1 19 10 14 17 11 19 -10 5z"/>
<path d="M2537 1213 c-11 -11 -8 -21 10 -27 17 -7 36 12 27 26 -6 10 -28 10
-37 1z"/>
<path d="M2457 1173 c-15 -14 -6 -31 12 -26 12 3 17 11 14 19 -6 15 -16 18
-26 7z"/>
<path d="M2106 1154 c-9 -24 0 -29 18 -11 8 8 12 17 9 21 -11 10 -21 7 -27
-10z"/>
<path d="M2370 1161 c0 -5 5 -13 10 -16 6 -3 10 -2 10 4 0 5 -4 13 -10 16 -5
3 -10 2 -10 -4z"/>
<path d="M759 1143 c-13 -16 -12 -17 4 -4 9 7 17 15 17 17 0 8 -8 3 -21 -13z"/>
<path d="M2110 1100 c0 -5 5 -10 10 -10 6 0 10 5 10 10 0 6 -4 10 -10 10 -5 0
-10 -4 -10 -10z"/>
<path d="M55 1064 c6 -37 6 -37 -24 -31 l-31 7 0 -50 0 -50 33 37 c18 21 43
51 56 67 l22 30 -23 13 c-36 19 -41 16 -33 -23z"/>
<path d="M700 1065 c-14 -16 -3 -20 19 -6 8 5 9 11 3 15 -5 3 -15 -1 -22 -9z"/>
<path d="M2063 1058 c-2 -16 1 -18 10 -9 7 7 8 14 1 21 -6 6 -10 2 -11 -12z"/>
<path d="M2000 1040 c0 -5 5 -10 10 -10 6 0 10 5 10 10 0 6 -4 10 -10 10 -5 0
-10 -4 -10 -10z"/>
<path d="M2431 1004 c0 -11 3 -14 6 -6 3 7 2 16 -1 19 -3 4 -6 -2 -5 -13z"/>
<path d="M562 898 c-15 -15 -16 -28 -2 -28 6 0 10 6 10 14 0 8 6 17 13 19 6 3
7 6 2 6 -6 1 -16 -4 -23 -11z"/>
<path d="M2118 903 c-22 -5 -24 -23 -3 -23 8 0 15 5 15 11 0 5 5 7 10 4 6 -3
10 -1 10 4 0 11 -3 12 -32 4z"/>
<path d="M575 851 c-3 -5 -1 -12 5 -16 5 -3 10 1 10 9 0 18 -6 21 -15 7z"/>
<path d="M505 810 c-3 -5 -1 -10 4 -10 6 0 11 5 11 10 0 6 -2 10 -4 10 -3 0
-8 -4 -11 -10z"/>
<path d="M450 619 c0 -5 5 -7 10 -4 6 3 10 8 10 11 0 2 -4 4 -10 4 -5 0 -10
-5 -10 -11z"/>
<path d="M387 593 c-4 -3 -7 -11 -7 -17 0 -6 5 -5 12 2 6 6 9 14 7 17 -3 3 -9
2 -12 -2z"/>
<path d="M15 535 c2 -14 -1 -25 -6 -25 -5 0 -9 -108 -9 -255 l0 -255 79 0 78
0 -23 46 c-13 26 -26 63 -30 83 -3 20 -11 59 -19 86 -7 28 -19 91 -26 140 -11
84 -13 105 -17 178 -1 15 -8 27 -16 27 -8 0 -12 -9 -11 -25z"/>
<path d="M375 538 c3 -13 7 -29 7 -35 2 -21 18 -15 18 6 0 27 -10 51 -22 51
-6 0 -7 -9 -3 -22z"/>
<path d="M342 480 c0 -14 2 -19 5 -12 2 6 2 18 0 25 -3 6 -5 1 -5 -13z"/>
<path d="M362 468 c6 -18 28 -21 28 -4 0 9 -7 16 -16 16 -9 0 -14 -5 -12 -12z"/>
<path d="M335 420 c-3 -5 -1 -10 4 -10 6 0 11 5 11 10 0 6 -2 10 -4 10 -3 0
-8 -4 -11 -10z"/>
<path d="M376 404 c-9 -23 -8 -24 14 -24 11 0 20 2 20 4 0 12 -13 36 -20 36
-4 0 -11 -7 -14 -16z"/>
<path d="M191 364 c0 -11 3 -14 6 -6 3 7 2 16 -1 19 -3 4 -6 -2 -5 -13z"/>
<path d="M360 345 c0 -14 4 -25 9 -25 5 0 8 11 7 25 -1 33 -16 33 -16 0z"/>
<path d="M215 280 c-3 -5 -1 -10 4 -10 6 0 11 5 11 10 0 6 -2 10 -4 10 -3 0
-8 -4 -11 -10z"/>
<path d="M214 223 c4 -16 8 -36 9 -46 1 -16 33 -34 44 -24 6 7 -27 57 -38 57
-17 0 -9 28 9 33 12 3 10 5 -7 6 -21 1 -23 -2 -17 -26z"/>
<path d="M243 132 c-22 -2 -30 -7 -27 -17 3 -8 13 -11 21 -8 11 4 14 2 9 -5
-4 -8 0 -12 11 -13 10 0 13 -3 6 -6 -20 -7 -15 -30 9 -47 12 -9 17 -16 10 -16
-6 0 -12 -4 -12 -10 0 -17 40 -11 47 6 3 9 1 25 -6 36 -6 10 -9 23 -6 28 4 6
0 10 -8 10 -10 0 -13 7 -10 19 6 23 -3 27 -44 23z"/>
<path d="M4090 101 c0 -17 21 -24 33 -11 9 10 9 11 0 6 -7 -4 -13 -2 -13 3 0
6 -4 11 -10 11 -5 0 -10 -4 -10 -9z"/>
<path d="M197 77 c-4 -10 -7 -26 -7 -35 1 -15 2 -15 11 1 6 10 9 25 7 35 -3
16 -4 15 -11 -1z"/>
<path d="M4086 10 c9 -8 74 -9 74 -1 0 5 -18 8 -39 7 -22 0 -37 -3 -35 -6z"/>
</g>
</svg>
